<svg width="20" height="20" viewBox="0 0 20 20" fill="none" xmlns="http://www.w3.org/2000/svg">
<path d="M11.5652 11.0358C10.9548 10.8317 10.2857 10.6158 9.6087 10.3646V8.40195C9.6087 8.40195 10.7826 7.91523 10.7826 6.04683C11.393 6.04683 11.393 4.4218 10.7826 4.4218C10.7826 4.23731 11.4322 3.15788 11.1739 2.12163C10.8022 0.626124 6.47826 0.626124 6.08696 2.12163C4.23217 1.72911 5.30435 4.22554 5.30435 4.47675C4.69 4.47675 4.69 6.04683 5.30435 6.04683C5.30435 7.91523 6.47826 8.40195 6.47826 8.40195V10.3646C4.30261 11.1771 1.71217 11.7423 1.3913 12.7197C1.13787 13.7473 1.00652 14.8013 1 15.8598H10.3913" stroke="white" stroke-linejoin="round"/>
<path d="M19 13.8972H12.7391V19H19V13.8972Z" stroke="white" stroke-linecap="round" stroke-linejoin="round"/>
<path d="M15.8696 17.4299V16.6449" stroke="white" stroke-linecap="round" stroke-linejoin="round"/>
<path d="M15.8422 15.0748C15.6874 15.0748 15.5361 15.1208 15.4074 15.2071C15.2787 15.2934 15.1784 15.416 15.1191 15.5594C15.0599 15.7029 15.0444 15.8607 15.0746 16.013C15.1048 16.1653 15.1793 16.3052 15.2888 16.4149C15.3982 16.5247 15.5377 16.5995 15.6895 16.6298C15.8413 16.6601 15.9987 16.6445 16.1417 16.5851C16.2847 16.5257 16.4069 16.4251 16.4929 16.296C16.5789 16.1669 16.6248 16.0151 16.6248 15.8598C16.6248 15.6516 16.5423 15.452 16.3956 15.3047C16.2488 15.1575 16.0497 15.0748 15.8422 15.0748Z" fill="#231F20"/>
<path d="M13.5217 13.8972V13.1122C13.5217 12.4876 13.7691 11.8885 14.2094 11.4469C14.6497 11.0052 15.2469 10.7571 15.8696 10.7571C16.4922 10.7571 17.0894 11.0052 17.5297 11.4469C17.97 11.8885 18.2174 12.4876 18.2174 13.1122V13.8972" stroke="white" stroke-linecap="round" stroke-linejoin="round"/>
</svg>
