<svg width="20" height="20" viewBox="0 0 20 20" fill="none" xmlns="http://www.w3.org/2000/svg">
<g style="mix-blend-mode:lighten">
<path d="M13.84 17.4739L2.2 17.4348C1.88174 17.4348 1.57652 17.3111 1.35147 17.0909C1.12643 16.8708 1 16.5722 1 16.2609V2.17391C1 1.86257 1.12643 1.56398 1.35147 1.34383C1.57652 1.12368 1.88174 1 2.2 1H12.6C12.9183 1 13.2235 1.12368 13.4485 1.34383C13.6736 1.56398 13.8 1.86257 13.8 2.17391V12.7391" fill="black" fill-opacity="0.7"/>
<path d="M13.84 17.4739L2.2 17.4348C1.88174 17.4348 1.57652 17.3111 1.35147 17.0909C1.12643 16.8708 1 16.5722 1 16.2609V2.17391C1 1.86257 1.12643 1.56398 1.35147 1.34383C1.57652 1.12368 1.88174 1 2.2 1H12.6C12.9183 1 13.2235 1.12368 13.4485 1.34383C13.6736 1.56398 13.8 1.86257 13.8 2.17391V12.7391" stroke="white" stroke-miterlimit="10" stroke-linecap="round"/>
<path d="M12.6001 14.3044H2.6001V2.56523H12.2001V11.5652" fill="black" fill-opacity="0.7"/>
<path d="M12.6001 14.3044H2.6001V2.56523H12.2001V11.5652" stroke="white" stroke-miterlimit="10" stroke-linecap="round"/>
<path d="M19 19L16.6 15.8696V12.3009C16.6 10.9743 15.336 9.71433 13.8 8.43477" fill="black" fill-opacity="0.7"/>
<path d="M19 19L16.6 15.8696V12.3009C16.6 10.9743 15.336 9.71433 13.8 8.43477" stroke="white" stroke-miterlimit="10" stroke-linecap="round"/>
<path d="M14.6001 13.5217L12.8001 11.7608C12.7213 11.6837 12.6278 11.6225 12.5248 11.5807C12.4219 11.539 12.3115 11.5175 12.2001 11.5175C12.0886 11.5175 11.9782 11.539 11.8753 11.5807C11.7723 11.6225 11.6788 11.6837 11.6001 11.7608C11.4696 11.9299 11.399 12.1359 11.399 12.3478C11.399 12.5596 11.4696 12.7656 11.6001 12.9347L13.4001 15.4782V16.2608C13.4001 17.0434 15.0001 18.9999 15.0001 18.9999" fill="black" fill-opacity="0.7"/>
<path d="M14.6001 13.5217L12.8001 11.7608C12.7213 11.6837 12.6278 11.6225 12.5248 11.5807C12.4219 11.539 12.3115 11.5175 12.2001 11.5175C12.0886 11.5175 11.9782 11.539 11.8753 11.5807C11.7723 11.6225 11.6788 11.6837 11.6001 11.7608C11.4696 11.9299 11.399 12.1359 11.399 12.3478C11.399 12.5596 11.4696 12.7656 11.6001 12.9347L13.4001 15.4782V16.2608C13.4001 17.0434 15.0001 18.9999 15.0001 18.9999" stroke="white" stroke-miterlimit="10" stroke-linecap="round"/>
<path d="M5.80011 15.8695H8.20011" stroke="white" stroke-width="2" stroke-miterlimit="10"/>
<path d="M4.59995 15.4782C4.52084 15.4782 4.4435 15.5012 4.37772 15.5442C4.31194 15.5872 4.26067 15.6483 4.2304 15.7198C4.20012 15.7913 4.1922 15.87 4.20764 15.9459C4.22307 16.0218 4.26117 16.0915 4.31711 16.1462C4.37305 16.201 4.44432 16.2382 4.52192 16.2533C4.59951 16.2684 4.67993 16.2607 4.75302 16.2311C4.82612 16.2014 4.88859 16.1513 4.93254 16.0869C4.97649 16.0226 4.99995 15.9469 4.99995 15.8695C4.99995 15.7658 4.95781 15.6662 4.88279 15.5929C4.80778 15.5195 4.70604 15.4782 4.59995 15.4782Z" fill="black" fill-opacity="0.7"/>
<path d="M9.40012 15.4782C9.32101 15.4782 9.24367 15.5012 9.17789 15.5442C9.11211 15.5872 9.06085 15.6483 9.03057 15.7198C9.0003 15.7913 8.99237 15.87 9.00781 15.9459C9.02324 16.0218 9.06134 16.0915 9.11728 16.1462C9.17322 16.201 9.24449 16.2382 9.32209 16.2533C9.39968 16.2684 9.4801 16.2607 9.5532 16.2311C9.62629 16.2014 9.68876 16.1513 9.73271 16.0869C9.77666 16.0226 9.80012 15.9469 9.80012 15.8695C9.80012 15.7658 9.75798 15.6662 9.68297 15.5929C9.60795 15.5195 9.50621 15.4782 9.40012 15.4782Z" fill="black" fill-opacity="0.7"/>
<path d="M4.59985 11.1739H10.1999" stroke="white" stroke-miterlimit="10"/>
<path d="M4.59985 8.04346H10.1999" stroke="white" stroke-miterlimit="10"/>
<path d="M4.59985 4.91307H7.79985" stroke="white" stroke-miterlimit="10"/>
</g>
</svg>
