<svg width="20" height="20" viewBox="0 0 20 20" fill="none" xmlns="http://www.w3.org/2000/svg">
<path d="M1 7.14246L3.44651 11.409L6.31441 7.62547" stroke="white" stroke-linecap="round" stroke-linejoin="round"/>
<path d="M3.45087 11.4234C3.30137 10.1593 3.38109 8.87309 3.68496 7.6467C3.98883 6.4203 4.51018 5.28066 5.21575 4.30047C5.92133 3.32027 6.79564 2.52103 7.78294 1.95372C8.77023 1.3864 9.84884 1.06347 10.95 1.00552C13.0115 0.921998 15.0173 1.78982 16.5261 3.41808C18.0349 5.04633 18.9231 7.30164 18.9952 9.68785C19.0674 12.0741 18.3176 14.3957 16.9109 16.1421C15.5041 17.8885 13.5557 18.9165 11.4941 19" stroke="white" stroke-linecap="round" stroke-linejoin="round"/>
<path d="M11.6368 5.26247V10.9876H15.3107" stroke="white" stroke-miterlimit="10" stroke-linecap="round"/>
</svg>
