<svg width="14" height="14" viewBox="0 0 14 14" fill="none" xmlns="http://www.w3.org/2000/svg">
<path d="M3.63403 11.5897V12.5557" stroke="white" stroke-miterlimit="10" stroke-linecap="round"/>
<path d="M10.9249 11.5897V12.5557" stroke="white" stroke-miterlimit="10" stroke-linecap="round"/>
<path d="M12.2267 10.6405C12.2264 10.7665 12.1991 10.8911 12.1464 11.0072C12.0937 11.1234 12.0167 11.2286 11.9198 11.3169C11.8229 11.4052 11.7081 11.4748 11.582 11.5216C11.4559 11.5684 11.321 11.5915 11.1852 11.5896H3.37331C3.23749 11.5915 3.10261 11.5684 2.97649 11.5216C2.85038 11.4748 2.73555 11.4052 2.63865 11.3169C2.54176 11.2286 2.46473 11.1234 2.41204 11.0072C2.35936 10.8911 2.33206 10.7665 2.33173 10.6405V9.89907C2.33166 9.69303 2.40264 9.49237 2.53428 9.32639C2.66592 9.16042 2.85133 9.03783 3.06344 8.97654C4.05033 8.69156 5.84967 8.22546 7.27923 8.22546C8.7088 8.22546 10.5081 8.69156 11.495 8.96688C11.7088 9.02865 11.8955 9.1527 12.0273 9.32062C12.1591 9.48854 12.229 9.69138 12.2267 9.89907V10.6405Z" stroke="white" stroke-miterlimit="10"/>
<path d="M12.1802 9.60685C12.4551 9.52569 12.7004 9.37552 12.8889 9.17298C13.0774 8.97043 13.2018 8.72344 13.2482 8.45935C13.2947 8.19527 13.2614 7.92442 13.152 7.67682C13.0426 7.42922 12.8615 7.21454 12.6286 7.05658C12.3958 6.89861 12.1203 6.80352 11.8327 6.78186C11.5452 6.76019 11.2568 6.81279 10.9995 6.93383C10.7422 7.05487 10.526 7.23962 10.375 7.4676C10.224 7.69558 10.144 7.95789 10.1439 8.22546C10.1443 8.36273 10.1654 8.49928 10.2064 8.63119" stroke="white" stroke-miterlimit="10"/>
<path d="M4.35259 8.63125C4.39357 8.49934 4.41461 8.3628 4.41509 8.22552C4.41496 7.95795 4.33495 7.69564 4.18393 7.46766C4.0329 7.23968 3.81677 7.05493 3.55947 6.93389C3.30217 6.81285 3.01377 6.76025 2.72621 6.78192C2.43865 6.80358 2.16318 6.89867 1.93033 7.05664C1.69747 7.21461 1.51632 7.42929 1.40695 7.67689C1.29759 7.92449 1.26428 8.19533 1.31072 8.45942C1.35716 8.7235 1.48153 8.9705 1.67005 9.17304C1.85858 9.37558 2.10389 9.52575 2.3788 9.60692" stroke="white" stroke-miterlimit="10"/>
<path d="M11.8392 6.75964C11.989 6.16499 12.0015 5.54768 11.8758 4.94825C11.7501 4.34881 11.4892 3.78081 11.11 3.28153C10.7309 2.78225 10.2422 2.36298 9.67606 2.05125C9.10987 1.73953 8.479 1.5424 7.82486 1.4728C7.17071 1.4032 6.5081 1.46271 5.8805 1.64742C5.25291 1.83213 4.67454 2.13786 4.18337 2.54454C3.69219 2.95123 3.29932 3.44966 3.03055 4.00713C2.76177 4.5646 2.62317 5.16848 2.62384 5.77914C2.62571 6.10929 2.66764 6.43819 2.74883 6.75964" stroke="white" stroke-miterlimit="10"/>
</svg>
